<svg width="944" height="1151" viewBox="0 0 944 1151" fill="none" xmlns="http://www.w3.org/2000/svg">
<path fill-rule="evenodd" clip-rule="evenodd" d="M943.625 33.995C790.187 572.322 445.485 941.238 59.499 1150.03L0.501221 1040.97C359.515 846.762 680.814 503.678 824.375 0.00512695L943.625 33.995Z" fill="#C7C7C7"/>
<path fill-rule="evenodd" clip-rule="evenodd" d="M932.085 30.7056C927.459 46.9366 922.657 63.0147 917.683 78.94L822.23 49.1302C826.954 34.0031 831.517 18.7247 835.915 3.29447L932.085 30.7056ZM911.564 98.1912C901.113 130.498 889.953 162.166 878.117 193.195L784.683 157.557C795.905 128.137 806.495 98.0906 816.418 67.4135L911.564 98.1912ZM870.84 211.978C858.405 243.581 845.266 274.51 831.46 304.766L740.483 263.255C753.552 234.614 765.998 205.318 777.785 175.363L870.84 211.978ZM822.988 323.072C808.555 353.821 793.43 383.861 777.655 413.195L689.583 365.831C704.498 338.098 718.805 309.683 732.464 280.581L822.988 323.072ZM768 430.915C751.589 460.64 734.507 489.623 716.798 517.866L632.074 464.744C648.802 438.067 664.943 410.681 680.455 382.582L768 430.915ZM705.966 534.929C687.608 563.491 668.606 591.278 649.008 618.295L568.063 559.577C586.564 534.073 604.506 507.835 621.843 480.86L705.966 534.929ZM637.075 634.551C616.836 661.798 595.987 688.242 574.578 713.886L497.812 649.801C518.016 625.599 537.694 600.641 556.799 574.921L637.075 634.551ZM561.536 729.33C539.506 755.116 516.908 780.073 493.796 804.202L421.579 735.031C443.39 712.26 464.715 688.71 485.504 664.375L561.536 729.33ZM479.727 818.724C455.996 842.942 431.744 866.304 407.028 888.815L339.693 814.882C363.02 793.637 385.908 771.589 408.302 748.735L479.727 818.724ZM392.026 902.323C366.706 924.864 340.917 946.525 314.719 967.311L252.564 888.973C277.294 869.352 301.636 848.906 325.535 827.631L392.026 902.323ZM298.848 979.758C272.058 1000.53 244.859 1020.39 217.312 1039.35L160.605 956.987C186.613 939.081 212.291 920.328 237.581 900.724L298.848 979.758ZM200.623 1050.71C172.494 1069.61 144.018 1087.58 115.262 1104.64L64.2502 1018.63C91.402 1002.53 118.289 985.553 144.848 967.705L200.623 1050.71ZM97.836 1114.84C83.2199 1123.29 68.535 1131.5 53.7896 1139.48L6.21068 1051.52C20.132 1043.99 33.9968 1036.24 47.797 1028.26L97.836 1114.84Z" fill="#858585"/>
</svg>
