<svg width="30" height="21" viewBox="0 0 30 21" fill="none" xmlns="http://www.w3.org/2000/svg">
<path d="M1.6087 1.466C1.64815 1.16393 4.56736 1.28805 5.01739 1.22653C6.2652 1.05594 7.57268 1.1165 8.85217 1.1165C11.0037 1.1165 13.1675 1.23264 15.2435 1.3495C16.8919 1.44229 18.4922 1.1165 20.113 1.1165C21.7547 1.1165 23.3326 1 24.9826 1C25.4696 1 25.9565 1 26.4435 1C26.8298 1 27.2181 1.233 27.6 1.233C28.2461 1.233 29 1.60975 29 2.33976C29 3.99018 29 5.64061 29 7.29104C29 10.922 29 14.5529 29 18.1838C29 18.5313 28.9827 18.8452 28.7565 19.1159C28.6945 19.1901 28.3725 19.2851 28.2696 19.2906C26.6135 19.3787 24.9647 19.8518 23.2918 19.9637C22.3677 20.0256 21.4314 19.9896 20.5053 19.9896C19.6644 19.9896 18.8235 19.9896 17.9826 19.9896C17.0351 19.9896 16.1332 19.7566 15.1826 19.7566C13.3722 19.7566 11.5945 19.8731 9.76522 19.8731C9.01449 19.8731 8.26377 19.8731 7.51304 19.8731C6.54585 19.8731 5.65534 19.6401 4.71304 19.6401C3.92174 19.6401 3.13043 19.6401 2.33913 19.6401C1.6841 19.6401 1.36522 18.7512 1.36522 18.1256C1.36522 17.0965 1.36522 16.0674 1.36522 15.0383C1.36522 14.3346 1.65274 12.9589 1.30435 12.3588C1.12806 12.0551 1.31309 11.6392 1.23671 11.3103C1.13196 10.8592 1.12174 10.4404 1.12174 9.97055C1.12174 9.06902 1 8.20216 1 7.29104C1 6.24253 1 5.19402 1 4.14552C1 3.42222 1.03639 2.44486 1.36522 1.8155" stroke="#5E313C" stroke-width="2" stroke-linecap="round"/>
<path d="M5.46289 12.8359H10.2755" stroke="#5E313C" stroke-width="2" stroke-linecap="round"/>
<path d="M20 16H24.8126" stroke="#5E313C" stroke-width="2" stroke-linecap="round"/>
<path d="M14 13H25" stroke="#5E313C" stroke-width="2" stroke-linecap="round"/>
<path d="M5 16L15.9999 16.0342" stroke="#5E313C" stroke-width="2" stroke-linecap="round"/>
</svg>
