<svg width="4096" height="4096" viewBox="0 0 4096 4096" fill="none" xmlns="http://www.w3.org/2000/svg">
<rect width="4096" height="4096" fill="white"/>
<path d="M2877.3 2025.21C2865.65 2132.77 2836.89 2370.05 2663.16 2590.68C2630.92 2631.61 2585.71 2688.2 2509.54 2744.26C2461.82 2779.38 2291.73 2895.4 2058.56 2886.52C1936.28 2881.86 1852.27 2844.96 1745 2797.86C1575.42 2723.39 1390.17 2642.04 1282.57 2446.37C1183.45 2266.12 1203.3 2085.41 1210.74 2025.21C1245.97 1740.02 1438.11 1565.45 1545.46 1467.92C1668.29 1356.34 1821.42 1217.21 2044.03 1208.43C2212.57 1201.78 2335.12 1273.24 2549.51 1398.25C2702.64 1487.56 2793.02 1541.89 2849.4 1655.22C2905.26 1767.47 2894.15 1870.04 2877.34 2025.21H2877.3Z" fill="black"/>
</svg>
