<?xml version="1.0" encoding="UTF-8"?>
<svg xmlns="http://www.w3.org/2000/svg" viewBox="0 0 218.22 218.02">
  <defs>
    <style>
      .cls-1 {
        fill: none;
        stroke: #5E313C;
        stroke-miterlimit: 10;
      }

      .cls-2 {
        fill: #f5e5e0;
        stroke-width: 0px;
      }
    </style>
  </defs>
  <g id="Calque_2" data-name="Calque 2">
    <path class="cls-2" d="M216.5,144.64c0-.46.68-4.75.81-5.93.29-2.74-.81-3.94-.81-8.04,0-3.85.97-4.67.81-8.04-.12-2.49-.68-2.61-.88-5.92-.15-2.4.02-4.44.07-5.04.26-3.08.7-3.03.81-5.12.17-3.41-.96-4.74-.81-8.23.1-2.48.69-2.56.81-5.16.14-3.1-.85-3.98-.81-7.16.04-3.12.97-3.83.81-6.23-.12-1.73-.8-4.53-.81-5.36,0-.02,0-.42,0-.98,0-.16,0-.29,0-.36v-.41s0-.01,0-.02c0-.46.68-4.75.81-5.93.29-2.74-.81-3.94-.81-8.04,0-3.85.97-4.67.81-8.04-.12-2.49-.68-2.61-.88-5.92-.15-2.4.02-4.44.07-5.04.26-3.08.7-3.03.81-5.12.17-3.41-.96-4.74-.81-8.23.1-2.48.69-2.56.81-5.16.14-3.1-.85-3.98-.81-7.16.04-3.12.97-3.83.81-6.23-.12-1.73-.8-4.53-.81-5.36,0-.02,0-.42,0-.98,0-.16,0-.29,0-.36v.43h-.75s-.01,0-.02,0c-.46,0-4.73-.68-5.9-.81-2.73-.29-3.92.81-8,.81-3.83,0-4.65-.97-8-.81-2.47.12-2.6.68-5.89.88-2.39.15-4.42-.02-5.02-.07-3.06-.26-3.01-.7-5.09-.81-3.4-.17-4.72.96-8.19.81-2.47-.1-2.55-.69-5.14-.81-3.08-.14-3.96.85-7.13.81-3.11-.04-3.81-.97-6.2-.81-1.73.12-4.51.8-5.33.81-.02,0-.42,0-.97,0-.16,0-.29,0-.36,0h-.75s-.01,0-.02,0c-.46,0-4.73-.68-5.9-.81-2.73-.29-3.92.81-8,.81-3.83,0-4.65-.97-8-.81-2.47.12-2.6.68-5.89.88-2.39.15-4.42-.02-5.02-.07-3.06-.26-3.01-.7-5.09-.81-3.4-.17-4.72.96-8.19.81-2.47-.1-2.55-.69-5.14-.81-3.08-.14-3.96.85-7.13.81-3.11-.04-3.81-.97-6.2-.81-1.73.12-4.51.8-5.33.81-.02,0-.42,0-.97,0-.16,0-.29,0-.36,0h-.75s-.01,0-.02,0c-.46,0-4.73-.68-5.9-.81-2.73-.29-3.92.81-8,.81-3.83,0-4.65-.97-8-.81-2.47.12-2.6.68-5.89.88-2.39.15-4.42-.02-5.02-.07-3.06-.26-3.01-.7-5.09-.81-3.4-.17-4.72.96-8.19.81-2.47-.1-2.55-.69-5.14-.81-3.08-.14-3.96.85-7.13.81-3.11-.04-3.81-.97-6.2-.81-1.73.12-4.51.8-5.33.81-.02,0-.42,0-.97,0-.16,0-.29,0-.36,0l.49.4v.74s0,.01,0,.02c0,.45-.68,4.69-.81,5.85-.29,2.71.81,3.89.81,7.93,0,3.8-.97,4.61-.81,7.93.12,2.45.68,2.58.88,5.83.15,2.37-.02,4.38-.07,4.97-.26,3.04-.7,2.99-.81,5.04-.17,3.37.96,4.67.81,8.12-.1,2.44-.69,2.52-.81,5.09-.14,3.05.85,3.93.81,7.06-.04,3.08-.97,3.78-.81,6.15.12,1.71.8,4.47.81,5.28,0,.02,0,.42,0,.97,0,.16,0,.28,0,.36v.41s0,.01,0,.02c0,.46-.68,4.75-.81,5.93-.29,2.74.81,3.94.81,8.04,0,3.85-.97,4.67-.81,8.04.12,2.49.68,2.61.88,5.92.15,2.4-.02,4.44-.07,5.04-.26,3.08-.7,3.03-.81,5.12-.17,3.41.96,4.74.81,8.23-.1,2.48-.69,2.56-.81,5.16-.14,3.1.85,3.98.81,7.16-.04,3.12-.97,3.83-.81,6.23.12,1.73.8,4.53.81,5.36,0,.02,0,.42,0,.98,0,.16,0,.29,0,.36v.41s0,.01,0,.02c0,.46-.68,4.75-.81,5.93-.29,2.74.81,3.94.81,8.04,0,3.85-.97,4.67-.81,8.04.12,2.49.68,2.61.88,5.92.15,2.4-.02,4.44-.07,5.04-.26,3.08-.7,3.03-.81,5.12-.17,3.41.96,4.74.81,8.23-.1,2.48-.69,2.56-.81,5.16-.14,3.1.85,3.98.81,7.16-.04,3.12-.97,3.83-.81,6.23.12,1.73.8,4.53.81,5.36,0,.02,0,.42,0,.98,0,.16,0,.29,0,.36v-.43h.75s.01,0,.02,0c.46,0,4.73.68,5.9.81,2.73.29,3.92-.81,8-.81,3.83,0,4.65.97,8,.81,2.47-.12,2.6-.68,5.89-.88,2.39-.15,4.42.02,5.02.07,3.06.26,3.01.7,5.09.81,3.4.17,4.72-.96,8.19-.81,2.47.1,2.55.69,5.14.81,3.08.14,3.96-.85,7.13-.81,3.11.04,3.81.97,6.2.81,1.73-.12,4.51-.8,5.33-.81.02,0,.42,0,.97,0,.16,0,.29,0,.36,0h.75s.01,0,.02,0c.46,0,4.73.68,5.9.81,2.73.29,3.92-.81,8-.81,3.83,0,4.65.97,8,.81,2.47-.12,2.6-.68,5.89-.88,2.39-.15,4.42.02,5.02.07,3.06.26,3.01.7,5.09.81,3.4.17,4.72-.96,8.19-.81,2.47.1,2.55.69,5.14.81,3.08.14,3.96-.85,7.13-.81,3.11.04,3.81.97,6.2.81,1.73-.12,4.51-.8,5.33-.81.02,0,.42,0,.97,0,.16,0,.29,0,.36,0h.75s.01,0,.02,0c.46,0,4.73.68,5.9.81,2.73.29,3.92-.81,8-.81,3.83,0,4.65.97,8,.81,2.47-.12,2.6-.68,5.89-.88,2.39-.15,4.42.02,5.02.07,3.06.26,3.01.7,5.09.81,3.4.17,4.72-.96,8.19-.81,2.47.1,2.55.69,5.14.81,3.08.14,3.96-.85,7.13-.81,3.11.04,3.81.97,6.2.81,1.73-.12,4.51-.8,5.33-.81.02,0,.42,0,.97,0,.16,0,.29,0,.36,0l-.49-.4v-.74s0-.01,0-.02c0-.45.68-4.69.81-5.85.29-2.71-.81-3.89-.81-7.93,0-3.8.97-4.61.81-7.93-.12-2.45-.68-2.58-.88-5.83-.15-2.37.02-4.38.07-4.97.26-3.04.7-2.99.81-5.04.17-3.37-.96-4.67-.81-8.12.1-2.44.69-2.52.81-5.09.14-3.05-.85-3.93-.81-7.06.04-3.08.97-3.78.81-6.15-.12-1.71-.8-4.47-.81-5.28,0-.02,0-.42,0-.97,0-.16,0-.28,0-.36v-.41s0-.01,0-.02ZM195.36,198.6H23.36V21.6h172v177Z"/>
  </g>
  <g id="Calque_1" data-name="Calque 1">
    <path class="cls-1" d="M72.87,1.35c.07,0,.2,0,.36,0,.55,0,.95,0,.97,0,.82,0,3.61-.69,5.33-.81,2.39-.16,3.09.76,6.2.81,3.16.04,4.05-.95,7.13-.81,2.59.12,2.67.71,5.14.81,3.48.14,4.8-.98,8.19-.81,2.08.1,2.03.54,5.09.81.6.05,2.63.22,5.02.07,3.29-.2,3.41-.76,5.89-.88,3.35-.16,4.17.81,8,.81,4.08,0,5.27-1.1,8-.81,1.17.12,5.44.81,5.9.81,0,0-.05,0,.02,0,.13,0,.64,0,.75,0"/>
    <path class="cls-1" d="M144.87,1.35c.07,0,.2,0,.36,0,.55,0,.95,0,.97,0,.82,0,3.61-.69,5.33-.81,2.39-.16,3.09.76,6.2.81,3.16.04,4.05-.95,7.13-.81,2.59.12,2.67.71,5.14.81,3.48.14,4.8-.98,8.19-.81,2.08.1,2.03.54,5.09.81.6.05,2.63.22,5.02.07,3.29-.2,3.41-.76,5.89-.88,3.35-.16,4.17.81,8,.81,4.08,0,5.27-1.1,8-.81,1.17.12,5.44.81,5.9.81,0,0-.05,0,.02,0,.13,0,.64,0,.75,0"/>
    <path class="cls-1" d="M.87,1.35c.07,0,.2,0,.36,0,.55,0,.95,0,.97,0,.82,0,3.61-.69,5.33-.81,2.39-.16,3.09.76,6.2.81,3.16.04,4.05-.95,7.13-.81,2.59.12,2.67.71,5.14.81,3.48.14,4.8-.98,8.19-.81,2.08.1,2.03.54,5.09.81.6.05,2.63.22,5.02.07,3.29-.2,3.41-.76,5.89-.88,3.35-.16,4.17.81,8,.81,4.08,0,5.27-1.1,8-.81,1.17.12,5.44.81,5.9.81,0,0-.05,0,.02,0,.13,0,.64,0,.75,0"/>
    <path class="cls-1" d="M1.35,73.1c0-.07,0-.2,0-.36,0-.55,0-.94,0-.97,0-.81-.69-3.57-.81-5.28-.16-2.37.76-3.07.81-6.15.04-3.14-.95-4.01-.81-7.06.12-2.57.71-2.65.81-5.09.14-3.45-.98-4.75-.81-8.12.1-2.06.54-2.01.81-5.04.05-.6.22-2.61.07-4.97-.2-3.26-.76-3.38-.88-5.83-.16-3.32.81-4.13.81-7.93,0-4.04-1.1-5.22-.81-7.93.12-1.16.81-5.39.81-5.85,0,0,0,.05,0-.02,0-.13,0-.64,0-.74"/>
    <path class="cls-1" d="M1.35,145.1c0-.07,0-.2,0-.36,0-.56,0-.95,0-.98,0-.82-.69-3.62-.81-5.36-.16-2.41.76-3.11.81-6.23.04-3.18-.95-4.07-.81-7.16.12-2.6.71-2.68.81-5.16.14-3.5-.98-4.82-.81-8.23.1-2.09.54-2.04.81-5.12.05-.6.22-2.64.07-5.04-.2-3.3-.76-3.43-.88-5.92-.16-3.36.81-4.19.81-8.04,0-4.1-1.1-5.29-.81-8.04.12-1.18.81-5.47.81-5.93,0,0,0,.05,0-.02,0-.13,0-.65,0-.75"/>
    <path class="cls-1" d="M1.35,217.1c0-.07,0-.2,0-.36,0-.56,0-.95,0-.98,0-.82-.69-3.62-.81-5.36-.16-2.41.76-3.11.81-6.23.04-3.18-.95-4.07-.81-7.16.12-2.6.71-2.68.81-5.16.14-3.5-.98-4.82-.81-8.23.1-2.09.54-2.04.81-5.12.05-.6.22-2.64.07-5.04-.2-3.3-.76-3.43-.88-5.92-.16-3.36.81-4.19.81-8.04,0-4.1-1.1-5.29-.81-8.04.12-1.18.81-5.47.81-5.93,0,0,0,.05,0-.02,0-.13,0-.65,0-.75"/>
    <path class="cls-1" d="M145.35,216.66c-.07,0-.2,0-.36,0-.55,0-.95,0-.97,0-.82,0-3.61.69-5.33.81-2.39.16-3.09-.76-6.2-.81-3.16-.04-4.05.95-7.13.81-2.59-.12-2.67-.71-5.14-.81-3.48-.14-4.8.98-8.19.81-2.08-.1-2.03-.54-5.09-.81-.6-.05-2.63-.22-5.02-.07-3.29.2-3.41.76-5.89.88-3.35.16-4.17-.81-8-.81-4.08,0-5.27,1.1-8,.81-1.17-.12-5.44-.81-5.9-.81,0,0,.05,0-.02,0-.13,0-.64,0-.75,0"/>
    <path class="cls-1" d="M73.35,216.66c-.07,0-.2,0-.36,0-.55,0-.95,0-.97,0-.82,0-3.61.69-5.33.81-2.39.16-3.09-.76-6.2-.81-3.16-.04-4.05.95-7.13.81-2.59-.12-2.67-.71-5.14-.81-3.48-.14-4.8.98-8.19.81-2.08-.1-2.03-.54-5.09-.81-.6-.05-2.63-.22-5.02-.07-3.29.2-3.41.76-5.89.88-3.35.16-4.17-.81-8-.81-4.08,0-5.27,1.1-8,.81-1.17-.12-5.44-.81-5.9-.81,0,0,.05,0-.02,0-.13,0-.64,0-.75,0"/>
    <path class="cls-1" d="M217.35,216.66c-.07,0-.2,0-.36,0-.55,0-.95,0-.97,0-.82,0-3.61.69-5.33.81-2.39.16-3.09-.76-6.2-.81-3.16-.04-4.05.95-7.13.81-2.59-.12-2.67-.71-5.14-.81-3.48-.14-4.8.98-8.19.81-2.08-.1-2.03-.54-5.09-.81-.6-.05-2.63-.22-5.02-.07-3.29.2-3.41.76-5.89.88-3.35.16-4.17-.81-8-.81-4.08,0-5.27,1.1-8,.81-1.17-.12-5.44-.81-5.9-.81,0,0,.05,0-.02,0-.13,0-.64,0-.75,0"/>
    <path class="cls-1" d="M216.86,144.92c0,.07,0,.2,0,.36,0,.55,0,.94,0,.97,0,.81.69,3.57.81,5.28.16,2.37-.76,3.07-.81,6.15-.04,3.14.95,4.01.81,7.06-.12,2.57-.71,2.65-.81,5.09-.14,3.45.98,4.75.81,8.12-.1,2.06-.54,2.01-.81,5.04-.05.6-.22,2.61-.07,4.97.2,3.26.76,3.38.88,5.83.16,3.32-.81,4.13-.81,7.93,0,4.04,1.1,5.22.81,7.93-.12,1.16-.81,5.39-.81,5.85,0,0,0-.05,0,.02,0,.13,0,.64,0,.74"/>
    <path class="cls-1" d="M216.86,72.92c0,.07,0,.2,0,.36,0,.56,0,.95,0,.98,0,.82.69,3.62.81,5.36.16,2.41-.76,3.11-.81,6.23-.04,3.18.95,4.07.81,7.16-.12,2.6-.71,2.68-.81,5.16-.14,3.5.98,4.82.81,8.23-.1,2.09-.54,2.04-.81,5.12-.05.6-.22,2.64-.07,5.04.2,3.3.76,3.43.88,5.92.16,3.36-.81,4.19-.81,8.04,0,4.1,1.1,5.29.81,8.04-.12,1.18-.81,5.47-.81,5.93,0,0,0-.05,0,.02,0,.13,0,.65,0,.75"/>
    <path class="cls-1" d="M216.86.92c0,.07,0,.2,0,.36,0,.56,0,.95,0,.98,0,.82.69,3.62.81,5.36.16,2.41-.76,3.11-.81,6.23-.04,3.18.95,4.07.81,7.16-.12,2.6-.71,2.68-.81,5.16-.14,3.5.98,4.82.81,8.23-.1,2.09-.54,2.04-.81,5.12-.05.6-.22,2.64-.07,5.04.2,3.3.76,3.43.88,5.92.16,3.36-.81,4.19-.81,8.04,0,4.1,1.1,5.29.81,8.04-.12,1.18-.81,5.47-.81,5.93,0,0,0-.05,0,.02,0,.13,0,.65,0,.75"/>
  </g>
</svg>