<svg width="146" height="75" viewBox="0 0 146 75" fill="none" xmlns="http://www.w3.org/2000/svg">
<g clip-path="url(#clip0_1872_748)">
<rect x="1" y="1" width="143" height="72" fill="#F5E5E0"/>
<path d="M72.5186 1.35289C72.5882 1.35289 72.7176 1.35289 72.8768 1.35289C73.424 1.35289 73.822 1.35289 73.8419 1.35289C74.6578 1.35289 77.434 0.667555 79.1454 0.548367C81.5235 0.389449 82.22 1.30323 85.3145 1.35289C88.4588 1.39262 89.3444 0.409313 92.409 0.548367C94.9861 0.667555 95.0657 1.25357 97.5234 1.35289C100.986 1.49194 102.3 0.379516 105.673 0.548367C107.742 0.64769 107.693 1.08471 110.737 1.35289C111.334 1.40255 113.354 1.5714 115.732 1.42242C119.006 1.22377 119.125 0.667555 121.593 0.548367C124.926 0.389449 125.742 1.35289 129.553 1.35289C133.613 1.35289 134.797 0.260328 137.513 0.548367C138.677 0.667555 142.926 1.35289 143.384 1.35289C143.384 1.35289 143.334 1.35289 143.404 1.35289C143.533 1.35289 144.041 1.35289 144.15 1.35289" stroke="#5E313C" stroke-miterlimit="10"/>
<path d="M0.876953 1.35289C0.946605 1.35289 1.07596 1.35289 1.23516 1.35289C1.78242 1.35289 2.18043 1.35289 2.20033 1.35289C3.01625 1.35289 5.79236 0.667555 7.50379 0.548367C9.88189 0.389449 10.5784 1.30323 13.6729 1.35289C16.8172 1.39262 17.7028 0.409313 20.7674 0.548367C23.3445 0.667555 23.4241 1.25357 25.8818 1.35289C29.3445 1.49194 30.6579 0.379516 34.031 0.548367C36.1007 0.64769 36.0509 1.08471 39.0957 1.35289C39.6927 1.40255 41.7126 1.5714 44.0907 1.42242C47.3643 1.22377 47.4837 0.667555 49.9514 0.548367C53.2847 0.389449 54.1006 1.35289 57.9115 1.35289C61.9712 1.35289 63.1553 0.260328 65.8717 0.548367C67.0359 0.667555 71.2846 1.35289 71.7423 1.35289C71.7423 1.35289 71.6926 1.35289 71.7622 1.35289C71.8916 1.35289 72.399 1.35289 72.5085 1.35289" stroke="#5E313C" stroke-miterlimit="10"/>
<path d="M1.35442 72.6193C1.35442 72.5498 1.35442 72.4206 1.35442 72.2617C1.35442 71.7154 1.35442 71.3281 1.35442 71.2983C1.35442 70.4938 0.667856 67.7524 0.548453 66.054C0.38925 63.7 1.30467 63.0048 1.35442 59.9456C1.39422 56.8268 0.40915 55.9627 0.548453 52.9333C0.667856 50.3807 1.25492 50.3012 1.35442 47.8777C1.49372 44.4511 0.3793 43.1599 0.548453 39.8127C0.647955 37.7666 1.08576 37.8162 1.35442 34.8067C1.40417 34.2108 1.57332 32.2144 1.42407 29.8703C1.22507 26.6324 0.667856 26.5132 0.548453 24.0798C0.38925 20.7822 1.35442 19.9777 1.35442 16.2034C1.35442 12.1907 0.259897 11.0187 0.548453 8.32702C0.667856 7.17486 1.35442 2.97347 1.35442 2.51658C1.35442 2.51658 1.35442 2.56624 1.35442 2.49671C1.35442 2.36759 1.35442 1.86104 1.35442 1.76172" stroke="#5E313C" stroke-miterlimit="10"/>
<path d="M72.4914 72.6492C72.4218 72.6492 72.2924 72.6492 72.1332 72.6492C71.5859 72.6492 71.1879 72.6492 71.168 72.6492C70.3521 72.6492 67.576 73.3345 65.8646 73.4537C63.4865 73.6126 62.79 72.6988 59.6954 72.6492C56.5512 72.6094 55.6656 73.5927 52.6009 73.4537C50.0238 73.3345 49.9442 72.7485 47.4865 72.6492C44.0239 72.5101 42.7104 73.6225 39.3373 73.4537C37.2677 73.3544 37.3174 72.9173 34.2727 72.6492C33.6757 72.5995 31.6558 72.4306 29.2777 72.5796C26.004 72.7783 25.8846 73.3345 23.417 73.4537C20.0837 73.6126 19.2677 72.6492 15.4568 72.6492C11.3971 72.6492 10.2131 73.7417 7.49665 73.4537C6.33248 73.3345 2.08374 72.6492 1.62603 72.6492C1.62603 72.6492 1.67578 72.6492 1.60613 72.6492C1.47678 72.6492 0.969316 72.6492 0.859863 72.6492" stroke="#5E313C" stroke-miterlimit="10"/>
<path d="M144.133 72.6492C144.063 72.6492 143.934 72.6492 143.775 72.6492C143.228 72.6492 142.83 72.6492 142.81 72.6492C141.994 72.6492 139.218 73.3345 137.506 73.4537C135.128 73.6126 134.432 72.6988 131.337 72.6492C128.193 72.6094 127.307 73.5927 124.243 73.4537C121.665 73.3345 121.586 72.7485 119.128 72.6492C115.665 72.5101 114.352 73.6225 110.979 73.4537C108.909 73.3544 108.959 72.9173 105.914 72.6492C105.317 72.5995 103.297 72.4306 100.919 72.5796C97.6456 72.7783 97.5262 73.3345 95.0586 73.4537C91.7253 73.6126 90.9093 72.6492 87.0984 72.6492C83.0387 72.6492 81.8547 73.7417 79.1383 73.4537C77.9741 73.3345 73.7253 72.6492 73.2676 72.6492C73.2676 72.6492 73.3174 72.6492 73.2477 72.6492C73.1184 72.6492 72.6109 72.6492 72.5015 72.6492" stroke="#5E313C" stroke-miterlimit="10"/>
<path d="M143.645 0.914062C143.645 0.983589 143.645 1.11271 143.645 1.27163C143.645 1.82784 143.645 2.21521 143.645 2.245C143.645 3.05946 144.332 5.84053 144.451 7.56876C144.611 9.96246 143.695 10.6577 143.645 13.7566C143.606 16.9151 144.591 17.7991 144.451 20.8682C144.332 23.4506 143.745 23.5301 143.645 25.9933C143.506 29.4696 144.621 30.7807 144.451 34.1677C144.352 36.2435 143.914 36.1939 143.645 39.253C143.596 39.849 143.427 41.8752 143.576 44.259C143.775 47.5366 144.332 47.6658 144.451 50.1389C144.611 53.4762 143.645 54.3006 143.645 58.1246C143.645 62.1968 144.74 63.3788 144.451 66.1102C144.332 67.2822 143.645 71.5432 143.645 72.0001C143.645 72.0001 143.645 71.9504 143.645 72.0199C143.645 72.1491 143.645 72.6655 143.645 72.7649" stroke="#5E313C" stroke-miterlimit="10"/>
</g>
<defs>
<clipPath id="clip0_1872_748">
<rect width="146" height="74.8" fill="white"/>
</clipPath>
</defs>
</svg>
