<svg width="128" height="128" viewBox="0 0 128 128" fill="none" xmlns="http://www.w3.org/2000/svg">
<path fill-rule="evenodd" clip-rule="evenodd" d="M64 9.34307C33.8138 9.34307 9.34307 33.8138 9.34307 64C9.34307 94.1862 33.8138 118.657 64 118.657C94.1862 118.657 118.657 94.1862 118.657 64C118.657 33.8138 94.1862 9.34307 64 9.34307ZM0 64C0 28.6538 28.6538 0 64 0C99.3462 0 128 28.6538 128 64C128 99.3462 99.3462 128 64 128C28.6538 128 0 99.3462 0 64Z" fill="#FF0000"/>
<path fill-rule="evenodd" clip-rule="evenodd" d="M61.2245 0.418826C62.145 0.379279 63.0703 0.359314 64 0.359314C64.9297 0.359314 65.8551 0.379279 66.7756 0.418827L66.4054 9.03525C65.6082 9.001 64.8063 8.98368 64 8.98368C63.1938 8.98368 62.3919 9.001 61.5947 9.03525L61.2245 0.418826ZM50.2239 1.85528C52.0201 1.45876 53.8445 1.13817 55.6934 0.896999L56.8089 9.44892C55.2106 9.65741 53.6343 9.93443 52.083 10.2769L50.2239 1.85528ZM72.3067 0.897001C74.1555 1.13817 75.9799 1.45876 77.7762 1.85529L75.9171 10.2769C74.3658 9.93444 72.7894 9.65741 71.1911 9.44892L72.3067 0.897001ZM39.638 5.1901C41.342 4.48347 43.0835 3.84867 44.8586 3.2895L47.4498 11.5154C45.9171 11.9982 44.4133 12.5464 42.9416 13.1566L39.638 5.1901ZM83.1415 3.28951C84.9166 3.84867 86.658 4.48347 88.362 5.1901L85.0584 13.1567C83.5868 12.5464 82.083 11.9982 80.5503 11.5154L83.1415 3.28951ZM29.7989 10.3217C31.356 9.32765 32.9594 8.3994 34.6052 7.54087L38.5939 15.1874C37.1717 15.9293 35.7858 16.7316 34.4396 17.591L29.7989 10.3217ZM93.3948 7.54087C95.0407 8.3994 96.6441 9.32765 98.2012 10.3217L93.5605 17.591C92.2142 16.7316 90.8283 15.9293 89.4061 15.1874L93.3948 7.54087ZM102.746 13.5096C104.215 14.6383 105.633 15.8296 106.996 17.0795L101.168 23.4365C99.9881 22.355 98.7613 21.3244 97.4907 20.348L102.746 13.5096ZM21.0042 17.0795C22.3675 15.8296 23.7855 14.6383 25.2543 13.5096L30.5093 20.348C29.2388 21.3244 28.012 22.355 26.8324 23.4365L21.0042 17.0795ZM110.921 21.0041C112.17 22.3674 113.362 23.7854 114.49 25.2542L107.652 30.5093C106.676 29.2387 105.645 28.0119 104.564 26.8323L110.921 21.0041ZM13.5096 25.2542C14.6383 23.7854 15.8296 22.3674 17.0795 21.0041L23.4365 26.8323C22.3551 28.0119 21.3244 29.2387 20.3481 30.5093L13.5096 25.2542ZM7.54093 34.6052C8.39946 32.9593 9.32771 31.3559 10.3217 29.7988L17.5911 34.4395C16.7317 35.7858 15.9294 37.1717 15.1875 38.5938L7.54093 34.6052ZM117.678 29.7988C118.672 31.3559 119.601 32.9593 120.459 34.6052L112.813 38.5938C112.071 37.1717 111.268 35.7858 110.409 34.4395L117.678 29.7988ZM3.28957 44.8585C3.84873 43.0834 4.48353 41.342 5.19016 39.638L13.1567 42.9416C12.5464 44.4132 11.9983 45.917 11.5155 47.4497L3.28957 44.8585ZM122.81 39.638C123.517 41.342 124.151 43.0834 124.71 44.8585L116.485 47.4497C116.002 45.917 115.454 44.4132 114.843 42.9416L122.81 39.638ZM0.897062 55.6933C1.13823 53.8445 1.45882 52.0201 1.85535 50.2238L10.277 52.0829C9.9345 53.6342 9.65747 55.2106 9.44898 56.8089L0.897062 55.6933ZM126.145 50.2238C126.541 52.0201 126.862 53.8445 127.103 55.6934L118.551 56.8089C118.343 55.2106 118.066 53.6343 117.723 52.0829L126.145 50.2238ZM0.359375 64C0.359375 63.0703 0.37934 62.1449 0.418888 61.2244L9.03531 61.5946C9.00106 62.3918 8.98374 63.1937 8.98374 64C8.98374 64.8062 9.00106 65.6081 9.03531 66.4053L0.418887 66.7755C0.37934 65.855 0.359375 64.9297 0.359375 64ZM127.581 61.2244C127.621 62.1449 127.641 63.0703 127.641 64C127.641 64.9297 127.621 65.855 127.581 66.7755L118.965 66.4054C118.999 65.6081 119.016 64.8062 119.016 64C119.016 63.1937 118.999 62.3918 118.965 61.5946L127.581 61.2244ZM1.85535 77.7761C1.45882 75.9799 1.13823 74.1555 0.89706 72.3066L9.44898 71.1911C9.65747 72.7894 9.93449 74.3657 10.277 75.917L1.85535 77.7761ZM127.103 72.3066C126.862 74.1555 126.541 75.9799 126.145 77.7761L117.723 75.917C118.066 74.3657 118.343 72.7894 118.551 71.1911L127.103 72.3066ZM5.19016 88.362C4.48353 86.658 3.84873 84.9165 3.28956 83.1414L11.5155 80.5502C11.9983 82.0829 12.5464 83.5867 13.1567 85.0584L5.19016 88.362ZM124.71 83.1414C124.151 84.9165 123.517 86.658 122.81 88.362L114.843 85.0584C115.454 83.5867 116.002 82.0829 116.485 80.5502L124.71 83.1414ZM10.3217 98.2011C9.32771 96.644 8.39946 95.0406 7.54093 93.3948L15.1875 89.4061C15.9294 90.8283 16.7317 92.2142 17.5911 93.5604L10.3217 98.2011ZM120.459 93.3948C119.601 95.0406 118.672 96.644 117.678 98.2011L110.409 93.5604C111.268 92.2142 112.071 90.8283 112.813 89.4061L120.459 93.3948ZM17.0795 106.996C15.8296 105.633 14.6383 104.215 13.5096 102.746L20.3481 97.4907C21.3244 98.7612 22.3551 99.988 23.4365 101.168L17.0795 106.996ZM114.49 102.746C113.362 104.215 112.17 105.633 110.921 106.996L104.564 101.168C105.645 99.988 106.676 98.7612 107.652 97.4907L114.49 102.746ZM25.2543 114.49C23.7855 113.362 22.3675 112.17 21.0042 110.92L26.8324 104.563C28.012 105.645 29.2388 106.676 30.5093 107.652L25.2543 114.49ZM106.996 110.92C105.633 112.17 104.215 113.362 102.746 114.49L97.4907 107.652C98.7613 106.676 99.9881 105.645 101.168 104.563L106.996 110.92ZM34.6052 120.459C32.9594 119.601 31.356 118.672 29.7989 117.678L34.4396 110.409C35.7858 111.268 37.1717 112.071 38.5939 112.812L34.6052 120.459ZM98.2012 117.678C96.6441 118.672 95.0407 119.601 93.3948 120.459L89.4061 112.812C90.8283 112.071 92.2142 111.268 93.5605 110.409L98.2012 117.678ZM44.8586 124.71C43.0835 124.151 41.342 123.516 39.638 122.81L42.9416 114.843C44.4133 115.454 45.9171 116.002 47.4498 116.485L44.8586 124.71ZM88.362 122.81C86.658 123.516 84.9166 124.151 83.1415 124.71L80.5503 116.485C82.083 116.002 83.5868 115.454 85.0584 114.843L88.362 122.81ZM55.6934 127.103C53.8445 126.862 52.0201 126.541 50.2239 126.145L52.083 117.723C53.6343 118.066 55.2106 118.343 56.8089 118.551L55.6934 127.103ZM77.7762 126.145C75.9799 126.541 74.1555 126.862 72.3066 127.103L71.1911 118.551C72.7894 118.343 74.3657 118.066 75.9171 117.723L77.7762 126.145ZM64 127.641C63.0703 127.641 62.145 127.621 61.2245 127.581L61.5946 118.965C62.3919 118.999 63.1938 119.016 64 119.016C64.8063 119.016 65.6082 118.999 66.4054 118.965L66.7756 127.581C65.8551 127.621 64.9297 127.641 64 127.641Z" fill="#0000FF"/>
</svg>
